<?xml version="1.0" encoding="UTF-8"?>
<svg xmlns="http://www.w3.org/2000/svg" width="800.000" height="600.000" viewBox="0.0 0.0 800.000 600.000" version="1.1">
  <desc>Produce by Acme CAD Converter</desc>
  <path d="M 586.75 156.11 A 15.026 15.026 0 0 0 566.29 147.63"></path>
  <path d="M 154.72 220.51 A 122.783 122.783 0 0 0 225.09 218.86"></path>
  <path d="M 303.2 218.86 A 121.065 121.065 0 0 0 373.57 220.51"></path>
  <path d="M 225.09 167.25 A 123.027 123.027 0 0 0 154.72 165.6"></path>
  <path d="M 372.21 169.87 A 31.334 31.334 0 0 0 382.72 171.69"></path>
  <path d="M 233.42 178.85 A 52.224 52.224 0 0 0 294.87 178.85"></path>
  <path d="M 373.57 165.6 A 120.919 120.919 0 0 0 303.2 167.25"></path>
  <path d="M 145.57 171.69 A 31.334 31.334 0 0 0 156.06 169.88"></path>
  <path d="M 156.06 216.23 A 31.334 31.334 0 0 0 145.57 214.42"></path>
  <path d="M 294.87 207.26 A 52.224 52.224 0 0 0 233.42 207.26"></path>
  <path d="M 382.72 214.42 A 31.334 31.334 0 0 0 372.21 216.24"></path>
  <path d="M 338.21 209.51 A 13.429 13.429 0 0 0 352.08 196.09"></path>
  <path d="M 333.24 208.57 A 16.462 16.462 0 0 0 338.21 209.51"></path>
  <path d="M 329.15 178.99 A 14.921 14.921 0 0 0 329.15 207.11"></path>
  <path d="M 338.21 176.6 A 16.462 16.462 0 0 0 333.24 177.54"></path>
  <path d="M 352.08 190.02 A 13.429 13.429 0 0 0 338.21 176.6"></path>
  <path d="M 198.99 207.12 A 14.921 14.921 0 0 0 198.99 178.99"></path>
  <path d="M 189.54 209.47 A 16.413 16.413 0 0 0 195.01 208.53"></path>
  <path d="M 176.11 196.04 A 13.429 13.429 0 0 0 189.54 209.47"></path>
  <path d="M 189.54 176.64 A 13.429 13.429 0 0 0 176.11 190.07"></path>
  <path d="M 195.01 177.58 A 16.413 16.413 0 0 0 189.54 176.64"></path>
</svg>