<?xml version="1.0" encoding="UTF-8"?>
<svg xmlns="http://www.w3.org/2000/svg" width="800.000" height="600.000" viewBox="0.0 0.0 800.000 600.000" version="1.1">
  <desc>Produce by Acme CAD Converter</desc>
<path d="M 586.75 156.11 A 15.026 15.026 0 0 0 566.29 147.63"
fill="none" stroke="black" stroke-width="0.5"/>
<path d="M573.99 138.49L574.54 138.45"
fill="none" stroke="black" stroke-width="0.5"/>
<path d="M574.54 138.45L575.51 138.05"
fill="none" stroke="black" stroke-width="0.5"/>
<path d="M575.51 138.05L573.52 142.87"
fill="none" stroke="black" stroke-width="0.5"/>
<path d="M578.5 139.28L581.03 140.33"
fill="none" stroke="black" stroke-width="0.5"/>
<path d="M581.03 140.33L578.89 141.6"
fill="none" stroke="black" stroke-width="0.5"/>
<path d="M578.89 141.6L579.58 141.88"
fill="none" stroke="black" stroke-width="0.5"/>
<path d="M579.58 141.88L579.94 142.3"
fill="none" stroke="black" stroke-width="0.5"/>
<path d="M579.94 142.3L580.08 142.63"
fill="none" stroke="black" stroke-width="0.5"/>
<path d="M580.08 142.63L580.02 143.41"
fill="none" stroke="black" stroke-width="0.5"/>
<path d="M580.02 143.41L579.83 143.87"
fill="none" stroke="black" stroke-width="0.5"/>
<path d="M579.83 143.87L579.32 144.47"
fill="none" stroke="black" stroke-width="0.5"/>
<path d="M579.32 144.47L578.67 144.73"
fill="none" stroke="black" stroke-width="0.5"/>
<path d="M578.67 144.73L577.88 144.68"
fill="none" stroke="black" stroke-width="0.5"/>
<path d="M577.88 144.68L577.19 144.39"
fill="none" stroke="black" stroke-width="0.5"/>
<path d="M577.19 144.39L576.6 143.88"
fill="none" stroke="black" stroke-width="0.5"/>
<path d="M576.6 143.88L576.46 143.55"
fill="none" stroke="black" stroke-width="0.5"/>
<path d="M576.46 143.55L576.42 143"
fill="none" stroke="black" stroke-width="0.5"/>
<path d="M585.39 142.14L583.1 141.19"
fill="none" stroke="black" stroke-width="0.5"/>
<path d="M583.1 141.19L582.01 143.16"
fill="none" stroke="black" stroke-width="0.5"/>
<path d="M582.01 143.16L582.34 143.02"
fill="none" stroke="black" stroke-width="0.5"/>
<path d="M582.34 143.02L583.12 143.08"
fill="none" stroke="black" stroke-width="0.5"/>
<path d="M583.12 143.08L583.81 143.37"
fill="none" stroke="black" stroke-width="0.5"/>
<path d="M583.81 143.37L584.4 143.88"
fill="none" stroke="black" stroke-width="0.5"/>
<path d="M584.4 143.88L584.67 144.53"
fill="none" stroke="black" stroke-width="0.5"/>
<path d="M584.67 144.53L584.62 145.32"
fill="none" stroke="black" stroke-width="0.5"/>
<path d="M584.62 145.32L584.43 145.77"
fill="none" stroke="black" stroke-width="0.5"/>
<path d="M584.43 145.77L583.91 146.37"
fill="none" stroke="black" stroke-width="0.5"/>
<path d="M583.91 146.37L583.26 146.64"
fill="none" stroke="black" stroke-width="0.5"/>
<path d="M583.26 146.64L582.48 146.58"
fill="none" stroke="black" stroke-width="0.5"/>
<path d="M582.48 146.58L581.79 146.3"
fill="none" stroke="black" stroke-width="0.5"/>
<path d="M581.79 146.3L581.19 145.78"
fill="none" stroke="black" stroke-width="0.5"/>
<path d="M581.19 145.78L581.06 145.46"
fill="none" stroke="black" stroke-width="0.5"/>
<path d="M581.06 145.46L581.02 144.9"
fill="none" stroke="black" stroke-width="0.5"/>
<path d="M587.96 143.74L587.98 143.4"
fill="none" stroke="black" stroke-width="0.5"/>
<path d="M587.98 143.4L587.77 143.13"
fill="none" stroke="black" stroke-width="0.5"/>
<path d="M587.77 143.13L587.44 143.06"
fill="none" stroke="black" stroke-width="0.5"/>
<path d="M587.44 143.06L587.13 143.21"
fill="none" stroke="black" stroke-width="0.5"/>
<path d="M587.13 143.21L587 143.53"
fill="none" stroke="black" stroke-width="0.5"/>
<path d="M587 143.53L587.11 143.85"
fill="none" stroke="black" stroke-width="0.5"/>
<path d="M587.11 143.85L587.39 144.03"
fill="none" stroke="black" stroke-width="0.5"/>
<path d="M587.39 144.03L587.73 143.99"
fill="none" stroke="black" stroke-width="0.5"/>
<path d="M587.73 143.99L587.96 143.74"
fill="none" stroke="black" stroke-width="0.5"/>
<path d="M583.26 150.63L583.26 150.63Z"
fill="none" stroke="black" stroke-width="0.5"/>
<path d="M577.11 165.73L577.11 165.73Z"
fill="none" stroke="black" stroke-width="0.5"/>
<path d="M572.63 161.25L572.63 161.25Z"
fill="none" stroke="black" stroke-width="0.5"/>
<path d="M551.74 161.25L551.74 161.25Z"
fill="none" stroke="black" stroke-width="0.5"/>
<path d="M572.63 161.25L572.63 161.25Z"
fill="none" stroke="black" stroke-width="0.5"/>
<path d="M144.77 218.9L145.57 218.9"
fill="none" stroke="black" stroke-width="0.5"/>
<path d="M145.57 218.9L148.67 219.08"
fill="none" stroke="black" stroke-width="0.5"/>
<path d="M148.67 219.08L151.74 219.62"
fill="none" stroke="black" stroke-width="0.5"/>
<path d="M151.74 219.62L154.72 220.51"
fill="none" stroke="black" stroke-width="0.5"/>
<path d="M 154.72 220.51 A 122.783 122.783 0 0 0 225.09 218.86"
fill="none" stroke="black" stroke-width="0.5"/>
<path d="M225.09 218.86L236.06 210.88"
fill="none" stroke="black" stroke-width="0.5"/>
<path d="M236.06 210.88L239.63 208.51"
fill="none" stroke="black" stroke-width="0.5"/>
<path d="M239.63 208.51L243.41 206.48"
fill="none" stroke="black" stroke-width="0.5"/>
<path d="M243.41 206.48L247.35 204.79"
fill="none" stroke="black" stroke-width="0.5"/>
<path d="M247.35 204.79L251.43 203.47"
fill="none" stroke="black" stroke-width="0.5"/>
<path d="M251.43 203.47L255.61 202.51"
fill="none" stroke="black" stroke-width="0.5"/>
<path d="M255.61 202.51L259.86 201.94"
fill="none" stroke="black" stroke-width="0.5"/>
<path d="M259.86 201.94L264.14 201.74"
fill="none" stroke="black" stroke-width="0.5"/>
<path d="M264.14 201.74L268.43 201.94"
fill="none" stroke="black" stroke-width="0.5"/>
<path d="M268.43 201.94L272.68 202.51"
fill="none" stroke="black" stroke-width="0.5"/>
<path d="M272.68 202.51L276.86 203.47"
fill="none" stroke="black" stroke-width="0.5"/>
<path d="M276.86 203.47L280.94 204.79"
fill="none" stroke="black" stroke-width="0.5"/>
<path d="M280.94 204.79L284.88 206.48"
fill="none" stroke="black" stroke-width="0.5"/>
<path d="M284.88 206.48L288.65 208.51"
fill="none" stroke="black" stroke-width="0.5"/>
<path d="M288.65 208.51L292.23 210.88"
fill="none" stroke="black" stroke-width="0.5"/>
<path d="M292.23 210.88L303.2 218.86"
fill="none" stroke="black" stroke-width="0.5"/>
<path d="M 303.2 218.86 A 121.065 121.065 0 0 0 373.57 220.51"
fill="none" stroke="black" stroke-width="0.5"/>
<path d="M373.57 220.51L376.55 219.62"
fill="none" stroke="black" stroke-width="0.5"/>
<path d="M376.55 219.62L379.62 219.08"
fill="none" stroke="black" stroke-width="0.5"/>
<path d="M379.62 219.08L382.72 218.9"
fill="none" stroke="black" stroke-width="0.5"/>
<path d="M382.72 218.9L383.51 218.9"
fill="none" stroke="black" stroke-width="0.5"/>
<path d="M383.51 171.69L383.51 167.21Z"
fill="none" stroke="black" stroke-width="0.5"/>
<path d="M383.51 171.69L383.51 214.42Z"
fill="none" stroke="black" stroke-width="0.5"/>
<path d="M383.51 218.9L383.51 214.42Z"
fill="none" stroke="black" stroke-width="0.5"/>
<path d="M292.23 175.23L288.65 177.59"
fill="none" stroke="black" stroke-width="0.5"/>
<path d="M288.65 177.59L284.88 179.63"
fill="none" stroke="black" stroke-width="0.5"/>
<path d="M284.88 179.63L280.94 181.31"
fill="none" stroke="black" stroke-width="0.5"/>
<path d="M280.94 181.31L276.86 182.64"
fill="none" stroke="black" stroke-width="0.5"/>
<path d="M276.86 182.64L272.68 183.6"
fill="none" stroke="black" stroke-width="0.5"/>
<path d="M272.68 183.6L268.43 184.17"
fill="none" stroke="black" stroke-width="0.5"/>
<path d="M268.43 184.17L264.14 184.36"
fill="none" stroke="black" stroke-width="0.5"/>
<path d="M264.14 184.36L259.86 184.17"
fill="none" stroke="black" stroke-width="0.5"/>
<path d="M259.86 184.17L255.61 183.6"
fill="none" stroke="black" stroke-width="0.5"/>
<path d="M255.61 183.6L251.43 182.64"
fill="none" stroke="black" stroke-width="0.5"/>
<path d="M251.43 182.64L247.35 181.31"
fill="none" stroke="black" stroke-width="0.5"/>
<path d="M247.35 181.31L243.41 179.63"
fill="none" stroke="black" stroke-width="0.5"/>
<path d="M243.41 179.63L239.63 177.59"
fill="none" stroke="black" stroke-width="0.5"/>
<path d="M239.63 177.59L236.06 175.23"
fill="none" stroke="black" stroke-width="0.5"/>
<path d="M236.06 175.23L225.09 167.25"
fill="none" stroke="black" stroke-width="0.5"/>
<path d="M 225.09 167.25 A 123.027 123.027 0 0 0 154.72 165.6"
fill="none" stroke="black" stroke-width="0.5"/>
<path d="M154.72 165.6L151.74 166.49"
fill="none" stroke="black" stroke-width="0.5"/>
<path d="M151.74 166.49L148.67 167.03"
fill="none" stroke="black" stroke-width="0.5"/>
<path d="M148.67 167.03L145.57 167.21"
fill="none" stroke="black" stroke-width="0.5"/>
<path d="M145.57 167.21L144.77 167.21"
fill="none" stroke="black" stroke-width="0.5"/>
<path d="M144.77 214.42L144.77 218.9Z"
fill="none" stroke="black" stroke-width="0.5"/>
<path d="M144.77 214.42L144.77 171.69Z"
fill="none" stroke="black" stroke-width="0.5"/>
<path d="M144.77 167.21L144.77 171.69Z"
fill="none" stroke="black" stroke-width="0.5"/>
<path d="M 372.21 169.87 A 31.334 31.334 0 0 0 382.72 171.69"
fill="none" stroke="black" stroke-width="0.5"/>
<path d="M382.72 167.21L379.62 167.03"
fill="none" stroke="black" stroke-width="0.5"/>
<path d="M379.62 167.03L376.55 166.49"
fill="none" stroke="black" stroke-width="0.5"/>
<path d="M376.55 166.49L373.57 165.6"
fill="none" stroke="black" stroke-width="0.5"/>
<path d="M373.57 165.6L373.23 166.67"
fill="none" stroke="black" stroke-width="0.5"/>
<path d="M373.23 166.67L372.89 167.74"
fill="none" stroke="black" stroke-width="0.5"/>
<path d="M372.89 167.74L372.55 168.8"
fill="none" stroke="black" stroke-width="0.5"/>
<path d="M372.55 168.8L372.21 169.87"
fill="none" stroke="black" stroke-width="0.5"/>
<path d="M156.06 169.88L162.66 168.28"
fill="none" stroke="black" stroke-width="0.5"/>
<path d="M162.66 168.28L169.35 167.07"
fill="none" stroke="black" stroke-width="0.5"/>
<path d="M169.35 167.07L176.08 166.25"
fill="none" stroke="black" stroke-width="0.5"/>
<path d="M176.08 166.25L182.86 165.81"
fill="none" stroke="black" stroke-width="0.5"/>
<path d="M182.86 165.81L189.65 165.76"
fill="none" stroke="black" stroke-width="0.5"/>
<path d="M189.65 165.76L196.43 166.09"
fill="none" stroke="black" stroke-width="0.5"/>
<path d="M196.43 166.09L203.18 166.82"
fill="none" stroke="black" stroke-width="0.5"/>
<path d="M203.18 166.82L209.88 167.93"
fill="none" stroke="black" stroke-width="0.5"/>
<path d="M209.88 167.93L216.51 169.42"
fill="none" stroke="black" stroke-width="0.5"/>
<path d="M216.51 169.42L223.03 171.29"
fill="none" stroke="black" stroke-width="0.5"/>
<path d="M223.03 171.29L223.55 170.28"
fill="none" stroke="black" stroke-width="0.5"/>
<path d="M223.55 170.28L224.06 169.27"
fill="none" stroke="black" stroke-width="0.5"/>
<path d="M224.06 169.27L224.57 168.26"
fill="none" stroke="black" stroke-width="0.5"/>
<path d="M224.57 168.26L225.09 167.25"
fill="none" stroke="black" stroke-width="0.5"/>
<path d="M154.72 165.6L155.05 166.67"
fill="none" stroke="black" stroke-width="0.5"/>
<path d="M155.05 166.67L155.39 167.74"
fill="none" stroke="black" stroke-width="0.5"/>
<path d="M155.39 167.74L155.73 168.81"
fill="none" stroke="black" stroke-width="0.5"/>
<path d="M155.73 168.81L156.06 169.88"
fill="none" stroke="black" stroke-width="0.5"/>
<path d="M303.2 167.25L292.23 175.23"
fill="none" stroke="black" stroke-width="0.5"/>
<path d="M294.87 178.85L305.26 171.28"
fill="none" stroke="black" stroke-width="0.5"/>
<path d="M305.26 171.28L304.75 170.27"
fill="none" stroke="black" stroke-width="0.5"/>
<path d="M304.75 170.27L304.23 169.27"
fill="none" stroke="black" stroke-width="0.5"/>
<path d="M304.23 169.27L303.72 168.26"
fill="none" stroke="black" stroke-width="0.5"/>
<path d="M303.72 168.26L303.2 167.25"
fill="none" stroke="black" stroke-width="0.5"/>
<path d="M 233.42 178.85 A 52.224 52.224 0 0 0 294.87 178.85"
fill="none" stroke="black" stroke-width="0.5"/>
<path d="M223.03 171.29L233.42 178.85"
fill="none" stroke="black" stroke-width="0.5"/>
<path d="M 373.57 165.6 A 120.919 120.919 0 0 0 303.2 167.25"
fill="none" stroke="black" stroke-width="0.5"/>
<path d="M305.26 171.28L311.78 169.38"
fill="none" stroke="black" stroke-width="0.5"/>
<path d="M311.78 169.38L318.4 167.87"
fill="none" stroke="black" stroke-width="0.5"/>
<path d="M318.4 167.87L325.1 166.74"
fill="none" stroke="black" stroke-width="0.5"/>
<path d="M325.1 166.74L331.85 166"
fill="none" stroke="black" stroke-width="0.5"/>
<path d="M331.85 166L338.63 165.66"
fill="none" stroke="black" stroke-width="0.5"/>
<path d="M338.63 165.66L345.43 165.72"
fill="none" stroke="black" stroke-width="0.5"/>
<path d="M345.43 165.72L352.2 166.17"
fill="none" stroke="black" stroke-width="0.5"/>
<path d="M352.2 166.17L358.94 167.01"
fill="none" stroke="black" stroke-width="0.5"/>
<path d="M358.94 167.01L365.62 168.25"
fill="none" stroke="black" stroke-width="0.5"/>
<path d="M365.62 168.25L372.21 169.87"
fill="none" stroke="black" stroke-width="0.5"/>
<path d="M383.51 167.21L382.72 167.21"
fill="none" stroke="black" stroke-width="0.5"/>
<path d="M382.72 171.69L383.51 171.69"
fill="none" stroke="black" stroke-width="0.5"/>
<path d="M 145.57 171.69 A 31.334 31.334 0 0 0 156.06 169.88"
fill="none" stroke="black" stroke-width="0.5"/>
<path d="M144.77 171.69L145.57 171.69"
fill="none" stroke="black" stroke-width="0.5"/>
<path d="M372.21 216.24L365.62 217.86"
fill="none" stroke="black" stroke-width="0.5"/>
<path d="M365.62 217.86L358.94 219.09"
fill="none" stroke="black" stroke-width="0.5"/>
<path d="M358.94 219.09L352.2 219.94"
fill="none" stroke="black" stroke-width="0.5"/>
<path d="M352.2 219.94L345.43 220.39"
fill="none" stroke="black" stroke-width="0.5"/>
<path d="M345.43 220.39L338.63 220.44"
fill="none" stroke="black" stroke-width="0.5"/>
<path d="M338.63 220.44L331.85 220.1"
fill="none" stroke="black" stroke-width="0.5"/>
<path d="M331.85 220.1L325.1 219.36"
fill="none" stroke="black" stroke-width="0.5"/>
<path d="M325.1 219.36L318.4 218.24"
fill="none" stroke="black" stroke-width="0.5"/>
<path d="M318.4 218.24L311.78 216.72"
fill="none" stroke="black" stroke-width="0.5"/>
<path d="M311.78 216.72L305.26 214.82"
fill="none" stroke="black" stroke-width="0.5"/>
<path d="M305.26 214.82L304.75 215.83"
fill="none" stroke="black" stroke-width="0.5"/>
<path d="M304.75 215.83L304.23 216.84"
fill="none" stroke="black" stroke-width="0.5"/>
<path d="M304.23 216.84L303.72 217.85"
fill="none" stroke="black" stroke-width="0.5"/>
<path d="M303.72 217.85L303.2 218.86"
fill="none" stroke="black" stroke-width="0.5"/>
<path d="M373.57 220.51L373.23 219.44"
fill="none" stroke="black" stroke-width="0.5"/>
<path d="M373.23 219.44L372.89 218.37"
fill="none" stroke="black" stroke-width="0.5"/>
<path d="M372.89 218.37L372.55 217.3"
fill="none" stroke="black" stroke-width="0.5"/>
<path d="M372.55 217.3L372.21 216.24"
fill="none" stroke="black" stroke-width="0.5"/>
<path d="M233.42 207.26L223.03 214.82"
fill="none" stroke="black" stroke-width="0.5"/>
<path d="M223.03 214.82L223.54 215.83"
fill="none" stroke="black" stroke-width="0.5"/>
<path d="M223.54 215.83L224.06 216.84"
fill="none" stroke="black" stroke-width="0.5"/>
<path d="M224.06 216.84L224.57 217.85"
fill="none" stroke="black" stroke-width="0.5"/>
<path d="M224.57 217.85L225.09 218.86"
fill="none" stroke="black" stroke-width="0.5"/>
<path d="M 156.06 216.23 A 31.334 31.334 0 0 0 145.57 214.42"
fill="none" stroke="black" stroke-width="0.5"/>
<path d="M154.72 220.51L155.06 219.44"
fill="none" stroke="black" stroke-width="0.5"/>
<path d="M155.06 219.44L155.39 218.37"
fill="none" stroke="black" stroke-width="0.5"/>
<path d="M155.39 218.37L155.73 217.3"
fill="none" stroke="black" stroke-width="0.5"/>
<path d="M155.73 217.3L156.06 216.23"
fill="none" stroke="black" stroke-width="0.5"/>
<path d="M223.03 214.82L216.51 216.69"
fill="none" stroke="black" stroke-width="0.5"/>
<path d="M216.51 216.69L209.88 218.19"
fill="none" stroke="black" stroke-width="0.5"/>
<path d="M209.88 218.19L203.18 219.3"
fill="none" stroke="black" stroke-width="0.5"/>
<path d="M203.18 219.3L196.43 220.03"
fill="none" stroke="black" stroke-width="0.5"/>
<path d="M196.43 220.03L189.65 220.36"
fill="none" stroke="black" stroke-width="0.5"/>
<path d="M189.65 220.36L182.86 220.31"
fill="none" stroke="black" stroke-width="0.5"/>
<path d="M182.86 220.31L176.08 219.87"
fill="none" stroke="black" stroke-width="0.5"/>
<path d="M176.08 219.87L169.35 219.04"
fill="none" stroke="black" stroke-width="0.5"/>
<path d="M169.35 219.04L162.66 217.83"
fill="none" stroke="black" stroke-width="0.5"/>
<path d="M162.66 217.83L156.06 216.23"
fill="none" stroke="black" stroke-width="0.5"/>
<path d="M145.57 214.42L144.77 214.42"
fill="none" stroke="black" stroke-width="0.5"/>
<path d="M 294.87 207.26 A 52.224 52.224 0 0 0 233.42 207.26"
fill="none" stroke="black" stroke-width="0.5"/>
<path d="M305.26 214.82L294.87 207.26"
fill="none" stroke="black" stroke-width="0.5"/>
<path d="M 382.72 214.42 A 31.334 31.334 0 0 0 372.21 216.24"
fill="none" stroke="black" stroke-width="0.5"/>
<path d="M383.51 214.42L382.72 214.42"
fill="none" stroke="black" stroke-width="0.5"/>
<path d="M352.08 196.09L352.08 190.02Z"
fill="none" stroke="black" stroke-width="0.5"/>
<path d="M347.6 190.02L347.6 196.09Z"
fill="none" stroke="black" stroke-width="0.5"/>
<path d="M347.6 196.09L347.42 197.87"
fill="none" stroke="black" stroke-width="0.5"/>
<path d="M347.42 197.87L346.89 199.58"
fill="none" stroke="black" stroke-width="0.5"/>
<path d="M346.89 199.58L346.03 201.15"
fill="none" stroke="black" stroke-width="0.5"/>
<path d="M346.03 201.15L344.88 202.52"
fill="none" stroke="black" stroke-width="0.5"/>
<path d="M344.88 202.52L343.47 203.63"
fill="none" stroke="black" stroke-width="0.5"/>
<path d="M343.47 203.63L341.87 204.44"
fill="none" stroke="black" stroke-width="0.5"/>
<path d="M341.87 204.44L340.14 204.91"
fill="none" stroke="black" stroke-width="0.5"/>
<path d="M340.14 204.91L338.36 205.03"
fill="none" stroke="black" stroke-width="0.5"/>
<path d="M 338.21 209.51 A 13.429 13.429 0 0 0 352.08 196.09"
fill="none" stroke="black" stroke-width="0.5"/>
<path d="M 333.24 208.57 A 16.462 16.462 0 0 0 338.21 209.51"
fill="none" stroke="black" stroke-width="0.5"/>
<path d="M338.36 205.03L336.52 204.83"
fill="none" stroke="black" stroke-width="0.5"/>
<path d="M336.52 204.83L334.74 204.35"
fill="none" stroke="black" stroke-width="0.5"/>
<path d="M329.15 207.11L333.24 208.57"
fill="none" stroke="black" stroke-width="0.5"/>
<path d="M334.74 204.35L330.65 202.9"
fill="none" stroke="black" stroke-width="0.5"/>
<path d="M330.65 202.9L328.86 202.06"
fill="none" stroke="black" stroke-width="0.5"/>
<path d="M328.86 202.06L327.26 200.91"
fill="none" stroke="black" stroke-width="0.5"/>
<path d="M327.26 200.91L325.91 199.47"
fill="none" stroke="black" stroke-width="0.5"/>
<path d="M325.91 199.47L324.85 197.81"
fill="none" stroke="black" stroke-width="0.5"/>
<path d="M324.85 197.81L324.12 195.98"
fill="none" stroke="black" stroke-width="0.5"/>
<path d="M324.12 195.98L323.75 194.04"
fill="none" stroke="black" stroke-width="0.5"/>
<path d="M323.75 194.04L323.75 192.07Z"
fill="none" stroke="black" stroke-width="0.5"/>
<path d="M323.75 192.07L324.12 190.13"
fill="none" stroke="black" stroke-width="0.5"/>
<path d="M324.12 190.13L324.85 188.3"
fill="none" stroke="black" stroke-width="0.5"/>
<path d="M324.85 188.3L325.91 186.63"
fill="none" stroke="black" stroke-width="0.5"/>
<path d="M325.91 186.63L327.26 185.2"
fill="none" stroke="black" stroke-width="0.5"/>
<path d="M327.26 185.2L328.86 184.04"
fill="none" stroke="black" stroke-width="0.5"/>
<path d="M328.86 184.04L330.65 183.21"
fill="none" stroke="black" stroke-width="0.5"/>
<path d="M 329.15 178.99 A 14.921 14.921 0 0 0 329.15 207.11"
fill="none" stroke="black" stroke-width="0.5"/>
<path d="M333.24 177.54L329.15 178.99"
fill="none" stroke="black" stroke-width="0.5"/>
<path d="M330.65 183.21L334.74 181.76"
fill="none" stroke="black" stroke-width="0.5"/>
<path d="M 338.21 176.6 A 16.462 16.462 0 0 0 333.24 177.54"
fill="none" stroke="black" stroke-width="0.5"/>
<path d="M334.74 181.76L336.52 181.28"
fill="none" stroke="black" stroke-width="0.5"/>
<path d="M336.52 181.28L338.36 181.07"
fill="none" stroke="black" stroke-width="0.5"/>
<path d="M338.36 181.07L340.14 181.2"
fill="none" stroke="black" stroke-width="0.5"/>
<path d="M340.14 181.2L341.87 181.67"
fill="none" stroke="black" stroke-width="0.5"/>
<path d="M341.87 181.67L343.47 182.48"
fill="none" stroke="black" stroke-width="0.5"/>
<path d="M343.47 182.48L344.88 183.59"
fill="none" stroke="black" stroke-width="0.5"/>
<path d="M344.88 183.59L346.03 184.96"
fill="none" stroke="black" stroke-width="0.5"/>
<path d="M346.03 184.96L346.89 186.53"
fill="none" stroke="black" stroke-width="0.5"/>
<path d="M346.89 186.53L347.42 188.24"
fill="none" stroke="black" stroke-width="0.5"/>
<path d="M347.42 188.24L347.6 190.02"
fill="none" stroke="black" stroke-width="0.5"/>
<path d="M 352.08 190.02 A 13.429 13.429 0 0 0 338.21 176.6"
fill="none" stroke="black" stroke-width="0.5"/>
<path d="M 198.99 207.12 A 14.921 14.921 0 0 0 198.99 178.99"
fill="none" stroke="black" stroke-width="0.5"/>
<path d="M195.01 208.53L198.99 207.12"
fill="none" stroke="black" stroke-width="0.5"/>
<path d="M 189.54 209.47 A 16.413 16.413 0 0 0 195.01 208.53"
fill="none" stroke="black" stroke-width="0.5"/>
<path d="M 176.11 196.04 A 13.429 13.429 0 0 0 189.54 209.47"
fill="none" stroke="black" stroke-width="0.5"/>
<path d="M176.11 190.07L176.11 196.04Z"
fill="none" stroke="black" stroke-width="0.5"/>
<path d="M 189.54 176.64 A 13.429 13.429 0 0 0 176.11 190.07"
fill="none" stroke="black" stroke-width="0.5"/>
<path d="M 195.01 177.58 A 16.413 16.413 0 0 0 189.54 176.64"
fill="none" stroke="black" stroke-width="0.5"/>
</svg>
